<svg width="91" height="45" viewBox="0 0 91 45" fill="none" xmlns="http://www.w3.org/2000/svg">
<path d="M45.4992 0C20.3708 0 0 10.0744 0 22.5C0 34.9256 20.3708 45 45.4992 45C70.6276 45 91 34.9256 91 22.5C91 10.0744 70.626 0 45.4992 0ZM45.4992 41.4487C22.3547 41.4487 3.5923 32.965 3.5923 22.5C3.5923 12.035 22.3547 3.55288 45.4992 3.55288C68.6437 3.55288 87.4077 12.035 87.4077 22.5C87.4077 32.965 68.6453 41.4487 45.4992 41.4487ZM39.7624 18.5534V15.0005H52.6035V18.5534H47.9807V30.0042H44.3836V18.5534H39.7624ZM68.0931 15.0005V30.0042H64.5008L57.9856 21.0744V30.0042H54.3949V15.0005H57.9856L64.5008 23.9304V15.0005H68.0931ZM22.801 30.0042V15.0005H26.3933L30.3836 21.0712L34.374 15.0005H37.9663V30.0042H34.374V21.5157L31.6453 25.6576H29.1172L26.3884 21.5157V30.0042H22.801Z" fill="black"/>
</svg>
