<svg width="16" height="16" viewBox="0 0 16 16" fill="none" xmlns="http://www.w3.org/2000/svg">
<mask id="path-1-inside-1_59_546" fill="white">
<path d="M1.33325 14.6665C1.33325 11.721 3.72107 9.33317 6.66659 9.33317C9.61212 9.33317 11.9999 11.721 11.9999 14.6665H10.6666C10.6666 12.4574 8.87572 10.6665 6.66659 10.6665C4.45745 10.6665 2.66659 12.4574 2.66659 14.6665H1.33325ZM6.66659 8.6665C4.45659 8.6665 2.66659 6.8765 2.66659 4.6665C2.66659 2.4565 4.45659 0.666504 6.66659 0.666504C8.87659 0.666504 10.6666 2.4565 10.6666 4.6665C10.6666 6.8765 8.87659 8.6665 6.66659 8.6665ZM6.66659 7.33317C8.13992 7.33317 9.33325 6.13984 9.33325 4.6665C9.33325 3.19317 8.13992 1.99984 6.66659 1.99984C5.19325 1.99984 3.99992 3.19317 3.99992 4.6665C3.99992 6.13984 5.19325 7.33317 6.66659 7.33317ZM12.1891 9.8017C14.0429 10.6372 15.3333 12.5012 15.3333 14.6665H13.9999C13.9999 13.0425 13.0321 11.6446 11.6418 11.0179L12.1891 9.8017ZM11.7307 2.27531C13.0629 2.82452 13.9999 4.13558 13.9999 5.6665C13.9999 7.57997 12.5361 9.14997 10.6666 9.31824V7.97624C11.7977 7.81464 12.6666 6.8425 12.6666 5.6665C12.6666 4.74607 12.1343 3.95052 11.3606 3.57074L11.7307 2.27531Z"/>
</mask>
<path d="M1.33325 14.6665C1.33325 11.721 3.72107 9.33317 6.66659 9.33317C9.61212 9.33317 11.9999 11.721 11.9999 14.6665H10.6666C10.6666 12.4574 8.87572 10.6665 6.66659 10.6665C4.45745 10.6665 2.66659 12.4574 2.66659 14.6665H1.33325ZM6.66659 8.6665C4.45659 8.6665 2.66659 6.8765 2.66659 4.6665C2.66659 2.4565 4.45659 0.666504 6.66659 0.666504C8.87659 0.666504 10.6666 2.4565 10.6666 4.6665C10.6666 6.8765 8.87659 8.6665 6.66659 8.6665ZM6.66659 7.33317C8.13992 7.33317 9.33325 6.13984 9.33325 4.6665C9.33325 3.19317 8.13992 1.99984 6.66659 1.99984C5.19325 1.99984 3.99992 3.19317 3.99992 4.6665C3.99992 6.13984 5.19325 7.33317 6.66659 7.33317ZM12.1891 9.8017C14.0429 10.6372 15.3333 12.5012 15.3333 14.6665H13.9999C13.9999 13.0425 13.0321 11.6446 11.6418 11.0179L12.1891 9.8017ZM11.7307 2.27531C13.0629 2.82452 13.9999 4.13558 13.9999 5.6665C13.9999 7.57997 12.5361 9.14997 10.6666 9.31824V7.97624C11.7977 7.81464 12.6666 6.8425 12.6666 5.6665C12.6666 4.74607 12.1343 3.95052 11.3606 3.57074L11.7307 2.27531Z" fill="black"/>
<path d="M1.33325 14.6665H-0.166748V16.1665H1.33325V14.6665ZM11.9999 14.6665V16.1665H13.4999V14.6665H11.9999ZM10.6666 14.6665H9.16659V16.1665H10.6666V14.6665ZM2.66659 14.6665V16.1665H4.16659V14.6665H2.66659ZM12.1891 9.8017L12.8054 8.43419L11.4371 7.81745L10.8212 9.18618L12.1891 9.8017ZM15.3333 14.6665V16.1665H16.8333V14.6665H15.3333ZM13.9999 14.6665H12.4999V16.1665H13.9999V14.6665ZM11.6418 11.0179L10.2739 10.4024L9.65875 11.7694L11.0254 12.3854L11.6418 11.0179ZM11.7307 2.27531L12.3025 0.888546L10.7498 0.248424L10.2884 1.86322L11.7307 2.27531ZM10.6666 9.31824H9.16659V10.9593L10.8011 10.8122L10.6666 9.31824ZM10.6666 7.97624L10.4544 6.49131L9.16659 6.6753V7.97624H10.6666ZM11.3606 3.57074L9.9183 3.15864L9.57373 4.36462L10.6996 4.91727L11.3606 3.57074ZM1.33325 14.6665H2.83325C2.83325 12.5494 4.54949 10.8332 6.66659 10.8332V9.33317V7.83317C2.89264 7.83317 -0.166748 10.8925 -0.166748 14.6665H1.33325ZM6.66659 9.33317V10.8332C8.78369 10.8332 10.4999 12.5494 10.4999 14.6665H11.9999H13.4999C13.4999 10.8925 10.4405 7.83317 6.66659 7.83317V9.33317ZM11.9999 14.6665V13.1665H10.6666V14.6665V16.1665H11.9999V14.6665ZM10.6666 14.6665H12.1666C12.1666 11.6289 9.70415 9.1665 6.66659 9.1665V10.6665V12.1665C8.04729 12.1665 9.16659 13.2858 9.16659 14.6665H10.6666ZM6.66659 10.6665V9.1665C3.62902 9.1665 1.16659 11.6289 1.16659 14.6665H2.66659H4.16659C4.16659 13.2858 5.28587 12.1665 6.66659 12.1665V10.6665ZM2.66659 14.6665V13.1665H1.33325V14.6665V16.1665H2.66659V14.6665ZM6.66659 8.6665V7.1665C5.28501 7.1665 4.16659 6.04808 4.16659 4.6665H2.66659H1.16659C1.16659 7.70493 3.62816 10.1665 6.66659 10.1665V8.6665ZM2.66659 4.6665H4.16659C4.16659 3.28493 5.28501 2.1665 6.66659 2.1665V0.666504V-0.833496C3.62816 -0.833496 1.16659 1.62808 1.16659 4.6665H2.66659ZM6.66659 0.666504V2.1665C8.04816 2.1665 9.16659 3.28493 9.16659 4.6665H10.6666H12.1666C12.1666 1.62808 9.70501 -0.833496 6.66659 -0.833496V0.666504ZM10.6666 4.6665H9.16659C9.16659 6.04808 8.04816 7.1665 6.66659 7.1665V8.6665V10.1665C9.70501 10.1665 12.1666 7.70493 12.1666 4.6665H10.6666ZM6.66659 7.33317V8.83317C8.96835 8.83317 10.8333 6.96826 10.8333 4.6665H9.33325H7.83325C7.83325 5.31141 7.31149 5.83317 6.66659 5.83317V7.33317ZM9.33325 4.6665H10.8333C10.8333 2.36474 8.96835 0.499837 6.66659 0.499837V1.99984V3.49984C7.31149 3.49984 7.83325 4.0216 7.83325 4.6665H9.33325ZM6.66659 1.99984V0.499837C4.36483 0.499837 2.49992 2.36474 2.49992 4.6665H3.99992H5.49992C5.49992 4.0216 6.02168 3.49984 6.66659 3.49984V1.99984ZM3.99992 4.6665H2.49992C2.49992 6.96826 4.36483 8.83317 6.66659 8.83317V7.33317V5.83317C6.02168 5.83317 5.49992 5.31141 5.49992 4.6665H3.99992ZM12.1891 9.8017L11.5727 11.1692C12.9084 11.7712 13.8333 13.1125 13.8333 14.6665H15.3333H16.8333C16.8333 11.8899 15.1773 9.50323 12.8054 8.43419L12.1891 9.8017ZM15.3333 14.6665V13.1665H13.9999V14.6665V16.1665H15.3333V14.6665ZM13.9999 14.6665H15.4999C15.4999 12.4312 14.1665 10.5106 12.2582 9.6504L11.6418 11.0179L11.0254 12.3854C11.8977 12.7786 12.4999 13.6538 12.4999 14.6665H13.9999ZM11.6418 11.0179L13.0097 11.6334L13.5569 10.4172L12.1891 9.8017L10.8212 9.18618L10.2739 10.4024L11.6418 11.0179ZM11.7307 2.27531L11.159 3.66208C11.9486 3.98761 12.4999 4.76367 12.4999 5.6665H13.9999H15.4999C15.4999 3.50748 14.1771 1.66143 12.3025 0.888546L11.7307 2.27531ZM13.9999 5.6665H12.4999C12.4999 6.79679 11.6352 7.72499 10.5321 7.82428L10.6666 9.31824L10.8011 10.8122C13.4369 10.575 15.4999 8.36315 15.4999 5.6665H13.9999ZM10.6666 9.31824H12.1666V7.97624H10.6666H9.16659V9.31824H10.6666ZM10.6666 7.97624L10.8787 9.46116C12.7386 9.19545 14.1666 7.59929 14.1666 5.6665H12.6666H11.1666C11.1666 6.08571 10.8569 6.43382 10.4544 6.49131L10.6666 7.97624ZM12.6666 5.6665H14.1666C14.1666 4.15272 13.2895 2.8466 12.0215 2.2242L11.3606 3.57074L10.6996 4.91727C10.9791 5.05445 11.1666 5.33942 11.1666 5.6665H12.6666ZM11.3606 3.57074L12.8029 3.98283L13.173 2.6874L11.7307 2.27531L10.2884 1.86322L9.9183 3.15864L11.3606 3.57074Z" fill="#838383" mask="url(#path-1-inside-1_59_546)"/>
</svg>
