<svg width="16" height="16" viewBox="0 0 16 16" fill="none" xmlns="http://www.w3.org/2000/svg">
<path d="M3.33325 7L3.34009 7.06641C3.37099 7.21839 3.50518 7.33285 3.66626 7.33301C3.82751 7.33301 3.96251 7.21852 3.99341 7.06641L4.00024 7C4.00024 6.81593 3.85035 6.66602 3.66626 6.66602M3.33325 7H3.25024M3.33325 7C3.33325 6.81604 3.48232 6.66619 3.66626 6.66602M3.33325 7H3.25024M3.66626 6.66602V6.58301M3.66626 6.66602V6.58301M3.66626 6.58301C3.86773 6.58301 4.03571 6.72604 4.07446 6.91602L4.08325 7L4.07446 7.08398C4.03547 7.27365 3.86751 7.41602 3.66626 7.41602C3.46511 7.41586 3.29698 7.27361 3.25806 7.08398L3.25024 7M3.66626 6.58301C3.43625 6.58318 3.25024 6.77 3.25024 7M11.9163 7L11.925 7.08398C11.964 7.27371 12.132 7.41602 12.3333 7.41602C12.5633 7.41602 12.7501 7.23 12.7502 7C12.7502 6.76985 12.5634 6.58301 12.3333 6.58301M11.9163 7H12.0002M11.9163 7C11.9163 6.76985 12.1031 6.58301 12.3333 6.58301M11.9163 7H12.0002M12.0002 7L12.0071 7.06641C12.038 7.21846 12.1721 7.33301 12.3333 7.33301C12.4944 7.33301 12.6285 7.21846 12.6594 7.06641L12.6663 7C12.6663 6.81593 12.5173 6.66602 12.3333 6.66602M12.0002 7C12.0002 6.81593 12.1492 6.66602 12.3333 6.66602M12.3333 6.66602V6.58301M12.3333 6.66602V6.58301" fill="black" stroke="#838383" stroke-width="1.5"/>
</svg>
