<svg width="16" height="16" viewBox="0 0 16 16" fill="none" xmlns="http://www.w3.org/2000/svg">
<mask id="path-1-inside-1_59_534" fill="white">
<path d="M14 13.3333C14 13.7015 13.7015 14 13.3333 14H2.66667C2.29848 14 2 13.7015 2 13.3333V6.32605C2 6.12032 2.09498 5.92611 2.25737 5.79981L7.59073 1.65166C7.83147 1.46442 8.16853 1.46442 8.40927 1.65166L13.7426 5.79981C13.905 5.92611 14 6.12032 14 6.32605V13.3333ZM12.6667 12.6667V6.6521L8 3.02247L3.33333 6.6521V12.6667H12.6667ZM4.66667 10H11.3333V11.3333H4.66667V10Z"/>
</mask>
<path d="M14 13.3333C14 13.7015 13.7015 14 13.3333 14H2.66667C2.29848 14 2 13.7015 2 13.3333V6.32605C2 6.12032 2.09498 5.92611 2.25737 5.79981L7.59073 1.65166C7.83147 1.46442 8.16853 1.46442 8.40927 1.65166L13.7426 5.79981C13.905 5.92611 14 6.12032 14 6.32605V13.3333ZM12.6667 12.6667V6.6521L8 3.02247L3.33333 6.6521V12.6667H12.6667ZM4.66667 10H11.3333V11.3333H4.66667V10Z" fill="black"/>
<path d="M2.25737 5.79981L3.17826 6.98386L3.17828 6.98384L2.25737 5.79981ZM7.59073 1.65166L8.51164 2.83569L8.51165 2.83568L7.59073 1.65166ZM8.40927 1.65166L7.48835 2.83568L7.48836 2.83569L8.40927 1.65166ZM13.7426 5.79981L12.8217 6.98384L12.8217 6.98388L13.7426 5.79981ZM12.6667 12.6667V14.1667H14.1667V12.6667H12.6667ZM12.6667 6.6521H14.1667V5.91848L13.5876 5.46807L12.6667 6.6521ZM8 3.02247L8.92091 1.83845L8 1.12218L7.07909 1.83845L8 3.02247ZM3.33333 6.6521L2.41242 5.46807L1.83333 5.91848V6.6521H3.33333ZM3.33333 12.6667H1.83333V14.1667H3.33333V12.6667ZM4.66667 10V8.5H3.16667V10H4.66667ZM11.3333 10H12.8333V8.5H11.3333V10ZM11.3333 11.3333V12.8333H12.8333V11.3333H11.3333ZM4.66667 11.3333H3.16667V12.8333H4.66667V11.3333ZM14 13.3333H12.5C12.5 12.8731 12.8731 12.5 13.3333 12.5V14V15.5C14.53 15.5 15.5 14.53 15.5 13.3333H14ZM13.3333 14V12.5H2.66667V14V15.5H13.3333V14ZM2.66667 14V12.5C3.12689 12.5 3.5 12.8731 3.5 13.3333H2H0.5C0.5 14.53 1.47007 15.5 2.66667 15.5V14ZM2 13.3333H3.5V6.32605H2H0.5V13.3333H2ZM2 6.32605H3.5C3.5 6.58319 3.38128 6.82596 3.17826 6.98386L2.25737 5.79981L1.33649 4.61577C0.808676 5.02627 0.5 5.65745 0.5 6.32605H2ZM2.25737 5.79981L3.17828 6.98384L8.51164 2.83569L7.59073 1.65166L6.66982 0.467631L1.33646 4.61578L2.25737 5.79981ZM7.59073 1.65166L8.51165 2.83568C8.21072 3.06975 7.78928 3.06975 7.48835 2.83568L8.40927 1.65166L9.33019 0.467639C8.54778 -0.140906 7.45222 -0.140906 6.66981 0.467639L7.59073 1.65166ZM8.40927 1.65166L7.48836 2.83569L12.8217 6.98384L13.7426 5.79981L14.6635 4.61579L9.33018 0.467633L8.40927 1.65166ZM13.7426 5.79981L12.8217 6.98388C12.6188 6.82604 12.5 6.5833 12.5 6.32605H14H15.5C15.5 5.65735 15.1912 5.02619 14.6635 4.61575L13.7426 5.79981ZM14 6.32605H12.5V13.3333H14H15.5V6.32605H14ZM12.6667 12.6667H14.1667V6.6521H12.6667H11.1667V12.6667H12.6667ZM12.6667 6.6521L13.5876 5.46807L8.92091 1.83845L8 3.02247L7.07909 4.2065L11.7458 7.83613L12.6667 6.6521ZM8 3.02247L7.07909 1.83845L2.41242 5.46807L3.33333 6.6521L4.25424 7.83613L8.92091 4.2065L8 3.02247ZM3.33333 6.6521H1.83333V12.6667H3.33333H4.83333V6.6521H3.33333ZM3.33333 12.6667V14.1667H12.6667V12.6667V11.1667H3.33333V12.6667ZM4.66667 10V11.5H11.3333V10V8.5H4.66667V10ZM11.3333 10H9.83333V11.3333H11.3333H12.8333V10H11.3333ZM11.3333 11.3333V9.83333H4.66667V11.3333V12.8333H11.3333V11.3333ZM4.66667 11.3333H6.16667V10H4.66667H3.16667V11.3333H4.66667Z" fill="#838383" mask="url(#path-1-inside-1_59_534)"/>
</svg>
