<svg width="100" height="101" viewBox="0 0 100 101" fill="none" xmlns="http://www.w3.org/2000/svg">
<g clip-path="url(#clip0_571_12296)">
<path d="M75.8906 22.5859V2.0625C75.8906 1.6481 75.726 1.25067 75.433 0.957646C75.14 0.66462 74.7425 0.5 74.3281 0.5H25.6719C25.2575 0.5 24.86 0.66462 24.567 0.957646C24.274 1.25067 24.1094 1.6481 24.1094 2.0625V22.5859C24.1094 33.7812 37.0078 46.1953 45.2031 50.4766C36.9922 54.6562 24.2187 66.9062 24.2187 78.3594V98.8281C24.2187 99.2425 24.3834 99.64 24.6764 99.933C24.9694 100.226 25.3668 100.391 25.7812 100.391H74.2188C74.6332 100.391 75.0306 100.226 75.3236 99.933C75.6166 99.64 75.7812 99.2425 75.7812 98.8281V78.3594C75.7812 66.9062 63.0703 54.7188 54.8203 50.5C63.1016 46.3047 75.8906 34.0938 75.8906 22.5859Z" fill="#F9C600"/>
<path d="M49.9687 75.0312L29.3594 96.5937H70.5547L49.9687 75.0312Z" fill="#FFF8E1"/>
<path d="M12.5625 0.5H87.4297V6.75H12.5625V0.5ZM12.5625 94.25H87.4297V100.5H12.5625V94.25Z" fill="#BCAAA4"/>
<path d="M69.9609 31.75H30.0469C33.8125 38.2578 40.7344 44.4375 46.0547 47.375H54.0156C59.3125 44.4297 66.2188 38.2578 69.9609 31.75Z" fill="#FFF8E1"/>
</g>
<defs>
<clipPath id="clip0_571_12296">
<rect width="100" height="100" fill="white" transform="translate(0 0.5)"/>
</clipPath>
</defs>
</svg>
