<svg width="16" height="16" viewBox="0 0 16 16" fill="none" xmlns="http://www.w3.org/2000/svg">
<path d="M14.6885 11.7744C14.7667 11.8615 14.7709 11.9928 14.6973 12.084L14.3301 12.5381C14.1876 12.7146 14.1041 12.9317 14.0918 13.1582V13.1592L14.0605 13.7412C14.0543 13.8581 13.9642 13.9543 13.8477 13.9668L13.2666 14.0283C13.0407 14.0524 12.8279 14.1464 12.6592 14.2979V14.2988L12.2256 14.6885C12.1385 14.7667 12.0073 14.77 11.916 14.6963L11.8174 14.6162L12.1973 14.2373L14.5508 11.8838L14.6748 11.7588L14.6885 11.7744ZM11.0156 14.1162C10.9584 14.1036 10.8999 14.095 10.8408 14.0918L10.2578 14.0605C10.1409 14.0542 10.0456 13.9633 10.0332 13.8467L9.97168 13.2666L9.94043 13.0996C9.93204 13.0685 9.91931 13.0389 9.9082 13.0088L11.0156 14.1162ZM11.7744 9.31055C11.8615 9.23232 11.9928 9.22915 12.084 9.30273L12.5381 9.66992H12.5391C12.6766 9.78082 12.8388 9.85419 13.0107 9.8877L12.7832 10.1162L11.666 11.2314L10.6865 10.252L10.1562 10.7822L9.86621 11.0713C9.87206 11.0503 9.88117 11.0302 9.88574 11.0088L9.9082 10.8408L9.93945 10.2578C9.94571 10.1409 10.0358 10.0457 10.1523 10.0332L10.7334 9.97168C10.9593 9.9476 11.1721 9.85267 11.3408 9.70117L11.7744 9.31055ZM13.7422 9.93945C13.8591 9.94581 13.9544 10.0358 13.9668 10.1523L13.9766 10.249L13.6621 9.93457L13.7422 9.93945ZM12.8564 5.25H10.083V2.47754L12.8564 5.25Z" fill="black" stroke="#838383" stroke-width="1.5"/>
</svg>
